<svg xmlns="http://www.w3.org/2000/svg" width="180" height="180" viewBox="0 0 180 180">
  <defs>
    <style>
      .cls-1 {
        fill: #fff;
        fill-rule: evenodd;
      }
    </style>
  </defs>
  <path id="nk_white" data-name="nk white" class="cls-1" d="M0.52,62.374H11.166v91.475H0.52v4.337H41.131v-4.337H29.7V95.1a44.394,44.394,0,0,1,1.774-13.307A30.4,30.4,0,0,1,36.1,72.428a17.74,17.74,0,0,1,14.49-7.294q6.9,0,10.35,4.239t3.45,15.279v69.2H52.96v4.337H93.571v-4.337H82.926V87.016a40.822,40.822,0,0,0-1.971-13.6,23.137,23.137,0,0,0-5.52-8.97,20.435,20.435,0,0,0-8.379-4.929,36.624,36.624,0,0,0-10.744-1.479q-10.452,0-17.349,5.126A37.007,37.007,0,0,0,28.514,74.6H28.12V58.036H0.52v4.337Zm129.126,95.812v-4.337H117.029v-48.1h0.394l36.274,52.44h24.446v-4.337h-5.52L136.152,94.9l33.317-32.528h9.463V58.036H150.543v4.337H163.16l-46.131,41.795V21.762H87.852V26.1H98.5V153.848H87.852v4.337h41.794Z"/>
</svg>
