<svg width="51" height="50" viewBox="0 0 51 50" fill="none" xmlns="http://www.w3.org/2000/svg">
<g clip-path="url(#clip0)">
<path d="M1.43664 18.3252L6.13098 17.8311L9.29797 17L9.70226 17.6514L9.61242 20.6836H9.70226C11.4842 18.0781 13.7902 16.7754 16.6202 16.7754C17.1593 16.7754 17.6759 16.8203 18.17 16.9102C18.6642 17 19.2107 17.2021 19.8097 17.5166C20.4086 17.8311 20.9252 18.2428 21.3595 18.752C21.7937 19.2611 22.1606 19.9873 22.4601 20.9307C22.7596 21.874 22.9093 22.9746 22.9093 24.2324V38.8545L25.2003 39.0791V40H15.0929V39.0791L17.3839 38.8545V23.5811C17.3839 20.3916 16.3582 18.7969 14.3068 18.7969C12.9591 18.7969 11.851 19.4108 10.9825 20.6387C10.129 21.8665 9.70226 23.4762 9.70226 25.4678V38.8545L12.0157 39.0791V40H1.88586V39.0791L4.19934 38.8545V19.2012L1.48156 19.2461L1.43664 18.3252ZM25.8643 8.80176L30.5586 8.30762L33.7256 7.47656L34.1299 8.12793V38.8545L36.4434 39.0791V40H26.3135V39.0791L28.627 38.8545V9.67773L25.9092 9.72266L25.8643 8.80176ZM34.1299 28.2754V27.7139L42.8672 18.6172L40.3516 18.3701V17.4492H47.0674V18.3701L44.5293 18.6172L38.083 25.4678L47.1123 38.8545L49.4482 39.0791V40H39.1611V39.0791L40.9805 38.8545L34.1299 28.2754Z" fill="white" fill-opacity="0.9"/>
</g>
<defs>
<clipPath id="clip0">
<rect width="51" height="50" fill="white"/>
</clipPath>
</defs>
</svg>
